<svg viewBox="0 0 80 80" width="100%" height="100%" fill="none" xmlns="http://www.w3.org/2000/svg">
    <!-- Head -->
    <circle cx="40" cy="42" r="20" fill="#4169E1" />
    <!-- Left ear -->
    <ellipse cx="18" cy="20" rx="9" ry="16" fill="#4169E1" transform="rotate(-20 18 20)" />
    <ellipse cx="18" cy="20" rx="4.5" ry="10" fill="#7EB6E8" transform="rotate(-20 18 20)" />
    <!-- Right ear -->
    <ellipse cx="62" cy="20" rx="9" ry="16" fill="#4169E1" transform="rotate(20 62 20)" />
    <ellipse cx="62" cy="20" rx="4.5" ry="10" fill="#7EB6E8" transform="rotate(20 62 20)" />
    <!-- Eyes -->
    <ellipse cx="33" cy="39" rx="5" ry="6" fill="white" />
    <ellipse cx="47" cy="39" rx="5" ry="6" fill="white" />
    <circle cx="34.5" cy="39" r="2.5" fill="#1a1a2e" />
    <circle cx="45.5" cy="39" r="2.5" fill="#1a1a2e" />
    <circle cx="35.5" cy="37.5" r="1" fill="white" />
    <circle cx="46.5" cy="37.5" r="1" fill="white" />
    <!-- Nose -->
    <ellipse cx="40" cy="44" rx="2.5" ry="1.8" fill="#2a2a4e" />
    <!-- Smile -->
    <path d="M34 48 Q37 52 40 51 Q43 52 46 48" stroke="#1a1a2e" stroke-width="1.5" fill="none" stroke-linecap="round" />
    <!-- Body hint -->
    <ellipse cx="40" cy="66" rx="16" ry="12" fill="#4169E1" />
    <ellipse cx="40" cy="68" rx="10" ry="7" fill="#7EB6E8" />
</svg>
